<?xml version="1.0" encoding="utf-8"?>
<!-- Generator: Adobe Illustrator 27.4.0, SVG Export Plug-In . SVG Version: 6.00 Build 0)  -->
<svg version="1.1" id="Capa_1" xmlns="http://www.w3.org/2000/svg" xmlns:xlink="http://www.w3.org/1999/xlink" x="0px" y="0px"
	 viewBox="0 0 16 16" style="enable-background:new 0 0 16 16;" xml:space="preserve">
<style type="text/css">
	.st0{fill:#61416c;}
</style>
<path class="st0" d="M8,4.5c-3.9,0-7,3.1-7,7C1,11.8,0.8,12,0.5,12S0,11.8,0,11.5c0-4.4,3.6-8,8-8s8,3.6,8,8c0,0.3-0.2,0.5-0.5,0.5
	S15,11.8,15,11.5C15,7.6,11.9,4.5,8,4.5z M8,6.5c-2.8,0-5,2.2-5,5C3,11.8,2.8,12,2.5,12S2,11.8,2,11.5c0-3.3,2.7-6,6-6s6,2.7,6,6
	c0,0.3-0.2,0.5-0.5,0.5S13,11.8,13,11.5C13,8.7,10.8,6.5,8,6.5z M8,8.5c-1.7,0-3,1.3-3,3C5,11.8,4.8,12,4.5,12S4,11.8,4,11.5
	c0-2.2,1.8-4,4-4s4,1.8,4,4c0,0.3-0.2,0.5-0.5,0.5S11,11.8,11,11.5C11,9.8,9.7,8.5,8,8.5z M8,10.5c-0.6,0-1,0.4-1,1
	C7,11.8,6.8,12,6.5,12S6,11.8,6,11.5c0-1.1,0.9-2,2-2s2,0.9,2,2c0,0.3-0.2,0.5-0.5,0.5S9,11.8,9,11.5C9,10.9,8.6,10.5,8,10.5z"/>
</svg>
